<svg xmlns="http://www.w3.org/2000/svg" viewBox="0 0 1000 1000" role="img" aria-label="FREERIDE KOREA mark">
  <path fill="#e30613" d="M500 70 845 220 803 735Q500 930 197 735L155 220Z"/>
  <path fill="#fff" d="M500 122 795 250 760 710Q500 872 240 710L205 250Z"/>
  <path fill="#e30613" d="M500 185 730 510H270Z"/>
  <path fill="#e30613" d="M500 185 600 510H400Z"/>
  <path fill="#e30613" d="M274 632C360 505 490 505 605 358 565 498 665 526 744 546 612 574 548 640 496 756 486 662 400 636 274 632Z"/>
  <path fill="#0057b8" d="M258 742Q500 895 742 742L710 790Q500 938 290 790Z"/>
  <path fill="#fff" d="M348 510C426 418 560 400 650 280L684 326C586 438 484 470 424 548 398 580 374 600 328 615Z"/>
  <path fill="#fff" d="M360 636C462 558 565 552 674 475 610 558 545 602 498 690 466 660 424 640 360 636Z"/>
</svg>
